{
    "asset" : {
        "generator" : "Khronos glTF Blender I/O v1.6.16",
        "version" : "2.0"
    },
    "extensionsUsed" : [
        "KHR_materials_unlit"
    ],
    "scene" : 0,
    "scenes" : [
        {
            "name" : "Scene",
            "nodes" : [
                0,
                1,
                2
            ]
        }
    ],
    "nodes" : [
        {
            "name" : "Camera",
            "rotation" : [
                0.6601622104644775,
                0.012208613567054272,
                -0.015202921815216541,
                0.7508699297904968
            ],
            "translation" : [
                0.10793638229370117,
                1.2855432033538818,
                20.737394332885742
            ]
        },
        {
            "mesh" : 0,
            "name" : "Plane",
            "scale" : [
                18.285184860229492,
                1,
                18.285184860229492
            ]
        },
        {
            "name" : "Sun",
            "rotation" : [
                -0.6535616517066956,
                0.5066866874694824,
                0.04758317768573761,
                0.5602335333824158
            ],
            "translation" : [
                0,
                2.3298873901367188,
                0
            ]
        }
    ],
    "materials" : [
        {
            "doubleSided" : true,
            "extensions" : {
                "KHR_materials_unlit" : {}
            },
            "name" : "Material.001",
            "pbrMetallicRoughness" : {
                "metallicFactor" : 0,
                "roughnessFactor" : 0.9
            }
        }
    ],
    "meshes" : [
        {
            "name" : "Plane",
            "primitives" : [
                {
                    "attributes" : {
                        "POSITION" : 0,
                        "NORMAL" : 1,
                        "TEXCOORD_0" : 2
                    },
                    "indices" : 3,
                    "material" : 0
                }
            ]
        }
    ],
    "accessors" : [
        {
            "bufferView" : 0,
            "componentType" : 5126,
            "count" : 41793,
            "max" : [
                1.0000001192092896,
                0.5892682671546936,
                1.0000001192092896
            ],
            "min" : [
                -1.0000001192092896,
                -0.640519917011261,
                -1.0000001192092896
            ],
            "type" : "VEC3"
        },
        {
            "bufferView" : 1,
            "componentType" : 5126,
            "count" : 41793,
            "type" : "VEC3"
        },
        {
            "bufferView" : 2,
            "componentType" : 5126,
            "count" : 41793,
            "type" : "VEC2"
        },
        {
            "bufferView" : 3,
            "componentType" : 5123,
            "count" : 244824,
            "type" : "SCALAR"
        }
    ],
    "bufferViews" : [
        {
            "buffer" : 0,
            "byteLength" : 501516,
            "byteOffset" : 0
        },
        {
            "buffer" : 0,
            "byteLength" : 501516,
            "byteOffset" : 501516
        },
        {
            "buffer" : 0,
            "byteLength" : 334344,
            "byteOffset" : 1003032
        },
        {
            "buffer" : 0,
            "byteLength" : 489648,
            "byteOffset" : 1337376
        }
    ],
    "buffers" : [
        {
            "byteLength" : 1827024,
            "uri" : "data:application/octet-stream;base64,"
        }
    ]
}
